# xmcd CD database file
#
# Track frame offsets:
#	150
#	20498
#	50258
#	64818
#	77318
#	97765
#	100678
#	111845
#	127800
#	147608
#	160163
#	180970
#	188670
#	204463
#
# Disc length: 2799 seconds
#
# Revision: 0
# Processed by: cddbd v1.4PL0 Copyright (c) Steve Scherf et al.
# Submitted via: CDex 1.50
#
DISCID=a70aed0e
DTITLE=Thomas Lang - The Lost Letter Z (japanese version)
DYEAR=1991
DGENRE=Jazz
TTITLE0=Feels So Right
TTITLE1=Are You Happy Now ?
TTITLE2=I Know Who You Are
TTITLE3=The Lost Letter Z
TTITLE4=Dry
TTITLE5=Angel Wing
TTITLE6=Break My Back
TTITLE7=Dont Let Me Be Misunderstood
TTITLE8=Unfaithful
TTITLE9=Opening Titles
TTITLE10=Ghost
TTITLE11=Wonderful Thing
TTITLE12=I Will
TTITLE13=Refrain
EXTD=YEAR: 1991
EXTT0=
EXTT1=
EXTT2=
EXTT3=
EXTT4=
EXTT5=
EXTT6=
EXTT7=
EXTT8=
EXTT9=
EXTT10=
EXTT11=
EXTT12=
EXTT13=
PLAYORDER=
